<?xml version="1.0" standalone="no"?>
<!DOCTYPE svg PUBLIC "-//W3C//DTD SVG 20010904//EN"
 "http://www.w3.org/TR/2001/REC-SVG-20010904/DTD/svg10.dtd">
<svg version="1.0" xmlns="http://www.w3.org/2000/svg"
 width="235.000000pt" height="211.000000pt" viewBox="0 0 235.000000 211.000000"
 preserveAspectRatio="xMidYMid meet">

<g transform="translate(0.000000,211.000000) scale(0.100000,-0.100000)"
fill="#000000" stroke="none">
<path d="M1035 2060 c-133 -15 -276 -60 -367 -117 -21 -13 -40 -23 -43 -23 -3
0 -31 -19 -62 -42 -136 -100 -266 -267 -328 -420 -52 -130 -69 -222 -68 -383
0 -119 4 -154 26 -235 37 -135 88 -242 168 -347 351 -465 1036 -521 1458 -119
200 192 301 428 301 706 0 178 -26 293 -101 444 -130 263 -389 463 -669 519
-99 20 -228 27 -315 17z m325 -569 c73 -59 71 -40 68 -506 l-3 -418 -135 131
c-74 72 -140 132 -145 132 -6 0 -69 -59 -140 -130 -71 -72 -133 -130 -138
-130 -4 0 -7 191 -5 424 3 411 4 425 24 452 54 73 92 83 294 77 141 -4 146 -5
180 -32z"/>
</g>
</svg>
